<svg xmlns="http://www.w3.org/2000/svg" version="1.1" xmlns:xlink="http://www.w3.org/1999/xlink" xmlns:svgjs="http://svgjs.dev/svgjs" width="1000" height="1125" viewBox="0 0 1000 1125"><g transform="matrix(1,0,0,1,1.7053025658242404e-13,0)"><svg viewBox="0 0 320 360" data-background-color="#ffffff" preserveAspectRatio="xMidYMid meet" height="1125" width="1000" xmlns="http://www.w3.org/2000/svg" xmlns:xlink="http://www.w3.org/1999/xlink"><g id="tight-bounds" transform="matrix(1,0,0,1,0,0)"><svg viewBox="0 0 320 360" height="360" width="320"><g><svg></svg></g><g><svg viewBox="0 0 320 360" height="360" width="320"><g><path xmlns="http://www.w3.org/2000/svg" d="M20.961 227.22l3.726 4.658-1.863-6.056c-0.466-2.795-3.726 0.466-1.863 1.398M25.153 224.425c1.397 2.329 2.795 4.658 2.795 6.987 0 3.261 2.795 4.658 5.123 5.589-3.261-3.726-5.124-13.974-7.918-12.576M204.017 26.929c7.918 0 15.371-0.932 23.756 0.931 20.495 5.124 37.729 15.371 49.374 29.811l32.606 52.169c1.397 13.042 4.192 27.482 3.726 43.319 3.261 0 2.795-4.658 6.521-5.59-3.726 9.316-5.59 20.961-6.521 34.469-2.329-7.453 0-18.632 0.466-24.687-3.261 5.124-5.124 1.397-5.124-0.932 0.466-3.726-1.397-3.261-2.795-4.658-5.124-4.658-8.384-9.782-12.11-17.7 2.329-6.055 2.795-14.905-4.658-19.563-2.329-1.397-5.124-3.726-6.521-7.453-1.863-5.124-5.124-11.179-4.193-19.097 0.466-2.329-6.987 5.124-11.179 1.863-18.166-12.576-36.332-27.016-58.224-39.127-11.645 0-20.029-4.192-24.221-9.316-3.726-4.658-0.932-10.713 4.658-11.179 3.261 0 6.987-0.932 9.782 0.932 0.466-1.863 2.329-4.192 4.657-4.192M157.904 16.215l0.932 0.466c4.658 0.932 6.987 7.453 12.11 5.124 0 3.261 0.466 6.521-0.466 8.85-1.397 3.726-5.59 3.726-8.85 3.726-31.208-1.863-49.374 11.179-68.471 22.358-5.124 3.261-10.713 5.59-14.906 9.782-20.029 18.632-41.921 35.866-47.045 70.335l-4.192 38.195c-0.466 4.192-5.124 8.384-4.192 13.508l3.26 22.824c-3.261-3.261-5.124 0.932-4.192 2.795 0.466 1.397 2.329 6.055 5.124 1.863 3.726 6.987 7.453 20.495 12.576 26.55 15.837 18.632 36.332 35.4 53.101 52.169 4.192-0.932 7.453-0.932 8.384-3.727 1.397 2.795-1.397 5.59-3.726 6.056 7.453 4.658 15.837 8.85 27.016 9.781 14.44 0.932 27.948 3.261 40.524 6.522 6.521-1.863 13.042-2.795 20.029-3.261 2.329 0 3.726-3.726 6.521-4.658l0.466-4.658c2.795 4.192 2.329-1.397 0.466-4.192 3.261 2.795 4.192 5.124 5.589 6.987 0-1.397 3.726-6.521 3.727-0.466l0.931-6.055c1.397-0.932 1.863 5.124 3.261 0.931 1.397-4.192 4.192-0.932 6.987-2.329-0.932 1.863-0.466 5.59 2.794 3.261l3.727-3.261c2.329 5.59 6.055 3.261 7.918 2.329 20.495-13.042 40.99-28.413 60.553-43.784l-0.466 6.055 2.329-7.453c2.329 2.329 4.192 0.466 5.124-0.931 2.795-4.658 6.521-9.316 12.577-13.508-7.453 20.029-16.303 35.866-27.482 48.908l-4.658 5.59c0 3.261-0.932 7.453-4.658 7.918-1.863 0.466-5.59-0.932-8.384 1.863-1.397 1.863 3.261 5.59-0.466 2.795-3.261-2.329-6.521 0-10.248 0.932-2.795 0.932 1.863 3.726 2.795 5.589 0.932 1.863 1.863 3.726 1.398 6.056l-5.124-5.59c-6.055 3.261-9.782 9.316-14.906 13.974-2.329 1.863-1.397 5.124-1.397 7.918-3.261 0-6.987-0.932-8.85 0.932-1.397 1.863-0.932 4.658-0.932 7.453-4.658-0.466-5.124-7.453-9.315-6.056-4.192 0.932-8.85 1.397-12.577 3.727 2.795 5.59-4.658 2.329-3.726 3.26-6.987-4.192-13.042-7.453-20.495-4.658-15.837-5.124-35.4-2.795-49.84-0.931 0-2.329 0.466-4.658-0.466-5.124-0.932 2.329-3.726 1.397-3.26 1.397-8.85-6.055-17.7-9.782-27.016-14.905-8.384 0.932-16.303-3.261-18.632-5.59-6.521-6.055-13.974-2.795-20.029-4.192-13.042-3.261-17.7-16.769-19.098-26.084-0.932-4.658-4.658-6.521-6.055-6.056-6.055-19.563-15.371-37.263-22.824-55.429-1.863-4.658-1.397-9.316-1.397-14.44 2.329 0.932 4.658 0.466 4.192-2.794-2.329-15.371-7.918-27.016-13.974-38.195 3.261-15.837 3.726-34.469 11.179-48.443 6.521-12.576 18.632-19.098 27.016-29.811 2.795-3.726 2.795-8.85 5.59-12.11 9.316-9.316 18.632-19.098 28.879-27.482 4.658-3.726 10.247 0 17.234-1.397 2.329-8.384 11.645-15.837 20.495-13.508 3.726 0.932 11.179-8.85 13.508-9.782 3.726-1.397 1.863 3.726 1.863 6.987 8.85-6.987 20.961-10.713 32.14-14.906" fill="#ff0000" fill-rule="nonzero" stroke="none" stroke-width="1" stroke-linecap="butt" stroke-linejoin="miter" stroke-miterlimit="10" stroke-dasharray="" stroke-dashoffset="0" font-family="none" font-weight="none" font-size="none" text-anchor="none" style="mix-blend-mode: normal" data-fill-palette-color="tertiary"></path></g><g transform="matrix(1,0,0,1,87.35833720390153,90)"><svg viewBox="0 0 145.28332559219695 180" height="180" width="145.28332559219695"><g><svg viewBox="0 0 145.28332559219695 180" height="180" width="145.28332559219695"><g><svg viewBox="0 0 145.28332559219695 180" height="180" width="145.28332559219695"><g><svg viewBox="0 0 145.28332559219695 180" height="180" width="145.28332559219695"><g id="textblocktransform"><svg viewBox="0 0 145.28332559219695 180" height="180" width="145.28332559219695" id="textblock"><g><svg viewBox="0 0 145.28332559219695 180" height="180" width="145.28332559219695"><g transform="matrix(1,0,0,1,0,0)"><svg width="145.28332559219695" viewBox="4.5 -35.88731384277344 28.962501525878906 35.999813079833984" height="180" data-palette-color="#ff0000"><path d="M28.55-1.7L27.55-5.3 26.65-7.8Q26.4-8.8 25.95-9.93 25.5-11.05 25-11.8L25-11.8Q24.05-13.15 22.28-13.93 20.5-14.7 16.85-14.9L16.85-14.9Q16.35-14.9 15.85-14.85L15.85-14.85Q15.35-14.85 13.88-14.7 12.4-14.55 11.75-14.5L11.75-14.5Q10.35-14.35 9.65-14.45L9.65-14.45Q9.75-7.15 9.75-2.55L9.75-2.55Q9.75-1.5 9.03-0.78 8.3-0.05 7.25-0.05 6.2-0.05 5.48-0.78 4.75-1.5 4.75-2.55L4.75-2.55Q4.75-7.45 4.63-17.28 4.5-27.1 4.5-32L4.5-32Q4.5-32.85 5.05-33.55L5.05-33.55Q5.2-34.25 5.75-34.75 6.3-35.25 7.05-35.35L7.05-35.35Q9.9-35.8 13.45-35.88 17-35.95 21.7-35.35L21.7-35.35Q23.4-35.1 24.88-34.68 26.35-34.25 27.98-33.43 29.6-32.6 30.73-31.53 31.85-30.45 32.55-28.83 33.25-27.2 33.15-25.2L33.15-25.2Q32.95-19.75 26.85-17.05L26.85-17.05Q28.15-16.05 29.1-14.65L29.1-14.65Q29.8-13.6 30.45-12.05 31.1-10.5 31.48-9.28 31.85-8.05 32.43-6.15 33-4.25 33.35-3.1L33.35-3.1Q33.65-2.15 33.15-1.23 32.65-0.3 31.68 0 30.7 0.3 29.78-0.2 28.85-0.7 28.55-1.7L28.55-1.7ZM9.6-19.75L10.2-19.85Q10.55-19.9 11.05-19.9L11.05-19.9Q11.85-19.95 13.15-19.95L13.15-19.95Q15.65-20 16.35-19.95L16.35-19.95 16.85-19.95Q21.2-20.25 24-21.3L24-21.3Q28.05-22.75 28.15-25.4L28.15-25.4Q28.3-29.2 20.9-30.45L20.9-30.45Q15.8-31.3 9.5-30.65L9.5-30.65Q9.5-26.45 9.6-19.75L9.6-19.75Z" opacity="1" transform="matrix(1,0,0,1,0,0)" fill="#ff0000" class="wordmark-text-0" data-fill-palette-color="primary" id="text-0"></path></svg></g></svg></g></svg></g></svg></g><g></g></svg></g></svg></g></svg></g></svg></g><defs></defs></svg><rect width="320" height="360" fill="none" stroke="none" visibility="hidden"></rect></g></svg></g></svg>